<svg width="240" height="240" viewBox="0 0 240 240" xmlns="http://www.w3.org/2000/svg">
    <path d="M240 120c0 66.274-53.726 120-120 120S0 186.274 0 120 53.726 0 120 0s120 53.726 120 120z" fill="url(#hdiuz1qala)"/>
    <path d="M240 120c0 66.274-53.726 120-120 120S0 186.274 0 120 53.726 0 120 0s120 53.726 120 120z" fill="url(#aycq6hmfyb)"/>
    <path d="M205.278 124.565c-.194 2.797 1.74 4.535 4.568 4.826l-4.77.253-.094 1.351 6.513.453.399-5.744-1.783-.124-.252 3.623c-1.714-.572-2.794-1.59-2.646-3.711.172-2.478 2.059-3.572 4.724-3.387 2.609.182 4.365 1.511 4.182 4.139-.141 2.027-1.463 3.142-3.103 3.405l1.186 1.931c2.331-.706 3.743-2.569 3.927-5.216.272-3.904-2.337-6.254-6.035-6.511-3.998-.278-6.591 1.484-6.816 4.712zM202.079 144.472l1.825.458 1.652-6.588 3.504.878-1.368 5.457 1.825.458 1.368-5.457 3.248.814-1.652 6.589 1.825.457 2.169-8.651-12.227-3.065-2.169 8.65zM198.725 153.543l9.877 4.178-1.51 3.569 1.733.733 3.841-9.08-1.733-.733-1.502 3.552-9.878-4.177-.828 1.958zM189.907 169.333l10.275 7.303 1.232-1.733-10.275-7.303-1.232 1.733zM185.502 175.157l5.119 4.69 1.794 1.44-2.094-.361-9.027-1.178-1.322 1.443 9.294 8.517 1.437-1.568-5.105-4.678-1.851-1.517 2.296.419 8.855 1.198 1.334-1.456-9.294-8.517-1.436 1.568zM165.961 192.183l5.79 9.027-3.262 2.092 1.016 1.584 8.299-5.323-1.016-1.584-3.247 2.083-5.79-9.027-1.79 1.148zM154.157 198.292c-3.386 1.462-4.574 5.07-3.127 8.421 1.439 3.334 4.88 4.943 8.266 3.481 3.403-1.469 4.574-5.07 3.134-8.404-1.447-3.351-4.87-4.967-8.273-3.498zm.788 1.873c2.418-1.044 4.393.112 5.43 2.513 1.029 2.384.524 4.631-1.895 5.675-2.418 1.044-4.383-.136-5.412-2.52-1.037-2.401-.541-4.623 1.877-5.668zM140.125 202.994c-3.352.786-4.509 2.855-3.637 6.573l1.65 7.034 2.052-.481-1.655-7.052c-.571-2.437-.016-3.61 2.036-4.092 2.015-.473 3.071.323 3.643 2.76l1.654 7.052 2.052-.481-1.65-7.034c-.873-3.719-2.866-5.049-6.145-4.279zM125.329 205.247c-2.779.172-4.605 1.737-5.337 4.232l1.924 1.239c.279-1.903 1.359-3.327 3.519-3.46 2.591-.16 3.927 1.623 4.087 4.215.162 2.61-.945 4.526-3.537 4.686-2.16.134-3.406-1.128-3.918-3l-1.757 1.466c1.035 2.406 3.039 3.714 5.818 3.543 3.869-.24 5.872-3.21 5.648-6.834-.224-3.625-2.578-6.326-6.447-6.087zM113.53 205.393l-.634 5.457-6.018-.699.634-5.457-2.112-.245-1.454 12.522 2.112.245.603-5.196 6.018.699-.603 5.196 2.112.245 1.454-12.522-2.112-.245zM87.425 203.849l-.568 1.515 4.421 1.659.569-1.515-4.422-1.659zM73.822 191.865c-2.332-1.556-4.8-.739-6.456 1.572l2.147-4.267-1.127-.752-3.625 5.43 4.789 3.196.992-1.486-3.02-2.016c1.347-1.205 2.767-1.637 4.535-.457 2.066 1.379 2.08 3.561.596 5.783-1.452 2.175-3.477 3.04-5.668 1.577-1.69-1.128-2.002-2.83-1.416-4.384l-2.265.071c-.544 2.374.373 4.525 2.58 5.998 3.254 2.173 6.59 1.074 8.647-2.009 2.225-3.333 1.982-6.459-.71-8.256zM58.288 179.365l-1.296 1.364 4.923 4.679-2.488 2.618-4.078-3.875-1.296 1.364 4.078 3.875-2.308 2.428-4.923-4.679-1.296 1.364 6.464 6.143 8.685-9.137-6.465-6.144zM51.978 171.874l-8.509 6.528-2.36-3.075-1.492 1.146 6.001 7.822 1.493-1.146-2.348-3.06 8.51-6.528-1.295-1.687zM42.615 156.49l-11.419 5.34.9 1.926 11.42-5.34-.9-1.926zM39.702 149.779l-6.612 2.118-2.14.844 1.352-1.638 5.5-7.255-.597-1.863-12.005 3.846.649 2.024 6.594-2.112 2.235-.854-1.503 1.785-5.432 7.094.603 1.882 12.005-3.846-.649-2.025zM34.602 124.571l-10.709.579-.209-3.871-1.879.102.533 9.845 1.878-.102-.208-3.851 10.71-.579-.116-2.123zM35.136 110.888c.411-3.665-2.13-6.488-5.758-6.895-3.609-.405-6.713 1.784-7.125 5.448-.413 3.684 2.13 6.488 5.74 6.893 3.627.407 6.73-1.763 7.143-5.446zm-2.017-.246c-.294 2.618-2.278 3.758-4.877 3.467-2.58-.29-4.28-1.844-3.986-4.462.294-2.617 2.294-3.737 4.874-3.448 2.6.292 4.283 1.825 3.989 4.443zM37.922 96.6c.976-3.301-.248-5.33-3.911-6.413l-6.93-2.048-.596 2.02 6.947 2.054c2.4.709 3.144 1.773 2.547 3.794-.587 1.985-1.8 2.509-4.2 1.8l-6.948-2.054-.597 2.021 6.929 2.048c3.663 1.082 5.805.009 6.76-3.221zM43.274 82.56c1.235-2.495.788-4.857-1.011-6.735l-2.033 1.051c1.511 1.19 2.208 2.836 1.248 4.775-1.152 2.327-3.364 2.596-5.691 1.444-2.344-1.16-3.454-3.074-2.302-5.401.96-1.94 2.675-2.392 4.553-1.903l-.396-2.253c-2.601-.301-4.734.784-5.97 3.28-1.72 3.473-.141 6.69 3.113 8.3 3.255 1.612 6.769.916 8.489-2.557zM48.883 72.372l-4.42-3.264 3.6-4.873 4.42 3.264 1.263-1.71-10.14-7.49-1.264 1.71 4.208 3.108-3.6 4.873-4.207-3.108-1.263 1.71 10.14 7.49 1.263-1.71zM62.885 50.625l-1.04-1.24-3.618 3.036 1.04 1.24 3.617-3.036zM80.165 44.49c2.503-1.262 3.008-3.814 1.812-6.393l2.656 3.971 1.21-.61-2.94-5.83-5.141 2.593.805 1.596 3.242-1.635c.385 1.766.062 3.214-1.837 4.171-2.217 1.119-4.122.057-5.325-2.329-1.178-2.335-.933-4.523 1.419-5.71 1.814-.915 3.448-.348 4.513.927l1.053-2.006c-1.798-1.643-4.121-1.904-6.49-.71-3.494 1.763-4.18 5.206-2.511 8.516 1.804 3.578 4.644 4.906 7.534 3.45zM98.279 37.226l-.547-1.8-6.5 1.974-1.05-3.456 5.384-1.636-.547-1.8-5.383 1.635-.974-3.204 6.5-1.974-.548-1.8-8.533 2.592 3.664 12.061 8.534-2.592zM107.907 35.36l-1.483-10.622 3.839-.536-.26-1.863-9.765 1.363.26 1.863 3.82-.533 1.483 10.622 2.106-.294zM126.307 34.737l1.02-12.565-2.119-.172-1.02 12.565 2.119.172zM133.823 35.525l1.431-6.794.326-2.277.755 1.985 3.583 8.37 1.914.403 2.598-12.336-2.08-.438-1.427 6.775-.364 2.365-.808-2.189-3.477-8.23-1.933-.408-2.598 12.336 2.08.438zM158.547 43.663l4.829-9.576 3.461 1.745.847-1.68-8.803-4.44-.847 1.68 3.444 1.738-4.83 9.575 1.899.958zM169.607 50.558c2.982 2.17 6.693 1.355 8.84-1.597 2.136-2.936 1.768-6.717-1.214-8.886-2.997-2.18-6.692-1.355-8.829 1.581-2.147 2.952-1.794 6.722 1.203 8.902zm1.211-1.632c-2.13-1.55-2.141-3.838-.603-5.953 1.528-2.1 3.719-2.809 5.849-1.26 2.13 1.55 2.115 3.843.587 5.942-1.538 2.115-3.703 2.82-5.833 1.271zM180.763 60.102c2.39 2.479 4.76 2.415 7.509-.236l5.201-5.015-1.462-1.517-5.215 5.028c-1.801 1.737-3.094 1.86-4.557.343-1.437-1.49-1.293-2.805.508-4.542l5.215-5.028-1.463-1.517-5.201 5.015c-2.749 2.652-2.873 5.045-.535 7.469zM190.516 71.879c1.563 2.304 3.839 3.08 6.36 2.438l.086-2.286c-1.779.73-3.555.524-4.769-1.267-1.458-2.148-.603-4.206 1.546-5.664 2.165-1.468 4.377-1.49 5.835.658 1.214 1.79.763 3.506-.588 4.9l2.157.766c1.543-2.116 1.649-4.507.086-6.811-2.176-3.208-5.752-3.42-8.757-1.381-3.006 2.038-4.132 5.44-1.956 8.647zM196.441 81.41l5.011-2.253 2.484 5.526-5.011 2.253.872 1.94 11.498-5.17-.872-1.94-4.771 2.146-2.484-5.526 4.77-2.145-.871-1.94-11.498 5.17.872 1.94zM208.6 104.689l1.592-.291-.849-4.646-1.592.291.849 4.646z" fill="#00308C"/>
    <path d="m103.516 136.482 32.466-32.466m0 0-.397 28.518m.397-28.518-28.518.397" stroke="#00308C" stroke-width="3" stroke-linecap="round" stroke-linejoin="round"/>
    <defs>
        <radialGradient id="hdiuz1qala" cx="0" cy="0" r="1" gradientUnits="userSpaceOnUse" gradientTransform="rotate(90.935 38.89 93.488) scale(183.895 183.892)">
            <stop stop-color="#FBE5BE"/>
            <stop offset=".275" stop-color="#EFC26F"/>
            <stop offset=".665" stop-color="#91620E" stop-opacity=".94"/>
            <stop offset="1" stop-color="#442C00"/>
        </radialGradient>
        <radialGradient id="aycq6hmfyb" cx="0" cy="0" r="1" gradientUnits="userSpaceOnUse" gradientTransform="rotate(90 -9.678 129.678) scale(131.613)">
            <stop stop-color="#FFD159" stop-opacity="0"/>
            <stop offset="1" stop-color="#FBE09B" stop-opacity=".28"/>
        </radialGradient>
    </defs>
</svg>
